<mxfile host="app.diagrams.net" modified="2021-01-15T00:17:21.827Z" agent="5.0 (Windows NT 10.0; Win64; x64) AppleWebKit/537.36 (KHTML, like Gecko) Chrome/87.0.4280.141 Safari/537.36" etag="5wj3vKHNN9F2q1Ysdsuj" version="14.2.3" type="github">
  <diagram id="R2lEEEUBdFMjLlhIrx00" name="Page-1">
    <mxGraphModel dx="1438" dy="548" grid="1" gridSize="10" guides="1" tooltips="1" connect="1" arrows="1" fold="1" page="0" pageScale="1" pageWidth="850" pageHeight="1100" math="0" shadow="0" extFonts="Permanent Marker^https://fonts.googleapis.com/css?family=Permanent+Marker">
      <root>
        <mxCell id="0" />
        <mxCell id="1" parent="0" />
        <mxCell id="C-vyLk0tnHw3VtMMgP7b-12" value="" style="edgeStyle=entityRelationEdgeStyle;endArrow=ERmandOne;startArrow=ERmandOne;endFill=0;startFill=0;entryX=1;entryY=0.5;entryDx=0;entryDy=0;" parent="1" source="C-vyLk0tnHw3VtMMgP7b-3" target="C-vyLk0tnHw3VtMMgP7b-20" edge="1">
          <mxGeometry width="100" height="100" relative="1" as="geometry">
            <mxPoint x="400" y="180" as="sourcePoint" />
            <mxPoint x="460" y="205" as="targetPoint" />
          </mxGeometry>
        </mxCell>
        <mxCell id="C-vyLk0tnHw3VtMMgP7b-2" value="Lecturer" style="shape=table;startSize=30;container=1;collapsible=1;childLayout=tableLayout;fixedRows=1;rowLines=0;fontStyle=1;align=center;resizeLast=1;" parent="1" vertex="1">
          <mxGeometry x="450" y="130" width="250" height="130" as="geometry" />
        </mxCell>
        <mxCell id="C-vyLk0tnHw3VtMMgP7b-3" value="" style="shape=partialRectangle;collapsible=0;dropTarget=0;pointerEvents=0;fillColor=none;points=[[0,0.5],[1,0.5]];portConstraint=eastwest;top=0;left=0;right=0;bottom=1;" parent="C-vyLk0tnHw3VtMMgP7b-2" vertex="1">
          <mxGeometry y="30" width="250" height="30" as="geometry" />
        </mxCell>
        <mxCell id="C-vyLk0tnHw3VtMMgP7b-4" value="PK" style="shape=partialRectangle;overflow=hidden;connectable=0;fillColor=none;top=0;left=0;bottom=0;right=0;fontStyle=1;" parent="C-vyLk0tnHw3VtMMgP7b-3" vertex="1">
          <mxGeometry width="30" height="30" as="geometry" />
        </mxCell>
        <mxCell id="C-vyLk0tnHw3VtMMgP7b-5" value="lecturer_id (auto generated index)" style="shape=partialRectangle;overflow=hidden;connectable=0;fillColor=none;top=0;left=0;bottom=0;right=0;align=left;spacingLeft=6;fontStyle=5;" parent="C-vyLk0tnHw3VtMMgP7b-3" vertex="1">
          <mxGeometry x="30" width="220" height="30" as="geometry" />
        </mxCell>
        <mxCell id="C-vyLk0tnHw3VtMMgP7b-6" value="" style="shape=partialRectangle;collapsible=0;dropTarget=0;pointerEvents=0;fillColor=none;points=[[0,0.5],[1,0.5]];portConstraint=eastwest;top=0;left=0;right=0;bottom=0;" parent="C-vyLk0tnHw3VtMMgP7b-2" vertex="1">
          <mxGeometry y="60" width="250" height="30" as="geometry" />
        </mxCell>
        <mxCell id="C-vyLk0tnHw3VtMMgP7b-7" value="" style="shape=partialRectangle;overflow=hidden;connectable=0;fillColor=none;top=0;left=0;bottom=0;right=0;" parent="C-vyLk0tnHw3VtMMgP7b-6" vertex="1">
          <mxGeometry width="30" height="30" as="geometry" />
        </mxCell>
        <mxCell id="C-vyLk0tnHw3VtMMgP7b-8" value="name" style="shape=partialRectangle;overflow=hidden;connectable=0;fillColor=none;top=0;left=0;bottom=0;right=0;align=left;spacingLeft=6;" parent="C-vyLk0tnHw3VtMMgP7b-6" vertex="1">
          <mxGeometry x="30" width="220" height="30" as="geometry" />
        </mxCell>
        <mxCell id="C-vyLk0tnHw3VtMMgP7b-9" value="" style="shape=partialRectangle;collapsible=0;dropTarget=0;pointerEvents=0;fillColor=none;points=[[0,0.5],[1,0.5]];portConstraint=eastwest;top=0;left=0;right=0;bottom=0;" parent="C-vyLk0tnHw3VtMMgP7b-2" vertex="1">
          <mxGeometry y="90" width="250" height="30" as="geometry" />
        </mxCell>
        <mxCell id="C-vyLk0tnHw3VtMMgP7b-10" value="" style="shape=partialRectangle;overflow=hidden;connectable=0;fillColor=none;top=0;left=0;bottom=0;right=0;" parent="C-vyLk0tnHw3VtMMgP7b-9" vertex="1">
          <mxGeometry width="30" height="30" as="geometry" />
        </mxCell>
        <mxCell id="C-vyLk0tnHw3VtMMgP7b-11" value="email" style="shape=partialRectangle;overflow=hidden;connectable=0;fillColor=none;top=0;left=0;bottom=0;right=0;align=left;spacingLeft=6;" parent="C-vyLk0tnHw3VtMMgP7b-9" vertex="1">
          <mxGeometry x="30" width="220" height="30" as="geometry" />
        </mxCell>
        <mxCell id="C-vyLk0tnHw3VtMMgP7b-13" value="Subject" style="shape=table;startSize=30;container=1;collapsible=1;childLayout=tableLayout;fixedRows=1;rowLines=0;fontStyle=1;align=center;resizeLast=1;" parent="1" vertex="1">
          <mxGeometry x="450" y="360" width="250" height="190" as="geometry" />
        </mxCell>
        <mxCell id="C-vyLk0tnHw3VtMMgP7b-14" value="" style="shape=partialRectangle;collapsible=0;dropTarget=0;pointerEvents=0;fillColor=none;points=[[0,0.5],[1,0.5]];portConstraint=eastwest;top=0;left=0;right=0;bottom=1;" parent="C-vyLk0tnHw3VtMMgP7b-13" vertex="1">
          <mxGeometry y="30" width="250" height="30" as="geometry" />
        </mxCell>
        <mxCell id="C-vyLk0tnHw3VtMMgP7b-15" value="PK" style="shape=partialRectangle;overflow=hidden;connectable=0;fillColor=none;top=0;left=0;bottom=0;right=0;fontStyle=1;" parent="C-vyLk0tnHw3VtMMgP7b-14" vertex="1">
          <mxGeometry width="30" height="30" as="geometry" />
        </mxCell>
        <mxCell id="C-vyLk0tnHw3VtMMgP7b-16" value="subject_id (auto generated index)" style="shape=partialRectangle;overflow=hidden;connectable=0;fillColor=none;top=0;left=0;bottom=0;right=0;align=left;spacingLeft=6;fontStyle=5;" parent="C-vyLk0tnHw3VtMMgP7b-14" vertex="1">
          <mxGeometry x="30" width="220" height="30" as="geometry" />
        </mxCell>
        <mxCell id="C-vyLk0tnHw3VtMMgP7b-17" value="" style="shape=partialRectangle;collapsible=0;dropTarget=0;pointerEvents=0;fillColor=none;points=[[0,0.5],[1,0.5]];portConstraint=eastwest;top=0;left=0;right=0;bottom=0;" parent="C-vyLk0tnHw3VtMMgP7b-13" vertex="1">
          <mxGeometry y="60" width="250" height="30" as="geometry" />
        </mxCell>
        <mxCell id="C-vyLk0tnHw3VtMMgP7b-18" value="" style="shape=partialRectangle;overflow=hidden;connectable=0;fillColor=none;top=0;left=0;bottom=0;right=0;" parent="C-vyLk0tnHw3VtMMgP7b-17" vertex="1">
          <mxGeometry width="30" height="30" as="geometry" />
        </mxCell>
        <mxCell id="C-vyLk0tnHw3VtMMgP7b-19" value="name" style="shape=partialRectangle;overflow=hidden;connectable=0;fillColor=none;top=0;left=0;bottom=0;right=0;align=left;spacingLeft=6;" parent="C-vyLk0tnHw3VtMMgP7b-17" vertex="1">
          <mxGeometry x="30" width="220" height="30" as="geometry" />
        </mxCell>
        <mxCell id="ffpQeVSOhYSVbCem01HP-28" value="" style="shape=partialRectangle;collapsible=0;dropTarget=0;pointerEvents=0;fillColor=none;points=[[0,0.5],[1,0.5]];portConstraint=eastwest;top=0;left=0;right=0;bottom=0;" parent="C-vyLk0tnHw3VtMMgP7b-13" vertex="1">
          <mxGeometry y="90" width="250" height="30" as="geometry" />
        </mxCell>
        <mxCell id="ffpQeVSOhYSVbCem01HP-29" value="" style="shape=partialRectangle;overflow=hidden;connectable=0;fillColor=none;top=0;left=0;bottom=0;right=0;" parent="ffpQeVSOhYSVbCem01HP-28" vertex="1">
          <mxGeometry width="30" height="30" as="geometry" />
        </mxCell>
        <mxCell id="ffpQeVSOhYSVbCem01HP-30" value="subject_code" style="shape=partialRectangle;overflow=hidden;connectable=0;fillColor=none;top=0;left=0;bottom=0;right=0;align=left;spacingLeft=6;" parent="ffpQeVSOhYSVbCem01HP-28" vertex="1">
          <mxGeometry x="30" width="220" height="30" as="geometry" />
        </mxCell>
        <mxCell id="N2aM__Ja2LDdj5RGPOZt-127" value="" style="shape=partialRectangle;collapsible=0;dropTarget=0;pointerEvents=0;fillColor=none;points=[[0,0.5],[1,0.5]];portConstraint=eastwest;top=0;left=0;right=0;bottom=0;" vertex="1" parent="C-vyLk0tnHw3VtMMgP7b-13">
          <mxGeometry y="120" width="250" height="30" as="geometry" />
        </mxCell>
        <mxCell id="N2aM__Ja2LDdj5RGPOZt-128" value="" style="shape=partialRectangle;overflow=hidden;connectable=0;fillColor=none;top=0;left=0;bottom=0;right=0;" vertex="1" parent="N2aM__Ja2LDdj5RGPOZt-127">
          <mxGeometry width="30" height="30" as="geometry" />
        </mxCell>
        <mxCell id="N2aM__Ja2LDdj5RGPOZt-129" value="PIN" style="shape=partialRectangle;overflow=hidden;connectable=0;fillColor=none;top=0;left=0;bottom=0;right=0;align=left;spacingLeft=6;" vertex="1" parent="N2aM__Ja2LDdj5RGPOZt-127">
          <mxGeometry x="30" width="220" height="30" as="geometry" />
        </mxCell>
        <mxCell id="C-vyLk0tnHw3VtMMgP7b-20" value="" style="shape=partialRectangle;collapsible=0;dropTarget=0;pointerEvents=0;fillColor=none;points=[[0,0.5],[1,0.5]];portConstraint=eastwest;top=0;left=0;right=0;bottom=0;" parent="C-vyLk0tnHw3VtMMgP7b-13" vertex="1">
          <mxGeometry y="150" width="250" height="30" as="geometry" />
        </mxCell>
        <mxCell id="C-vyLk0tnHw3VtMMgP7b-21" value="FK" style="shape=partialRectangle;overflow=hidden;connectable=0;fillColor=none;top=0;left=0;bottom=0;right=0;" parent="C-vyLk0tnHw3VtMMgP7b-20" vertex="1">
          <mxGeometry width="30" height="30" as="geometry" />
        </mxCell>
        <mxCell id="C-vyLk0tnHw3VtMMgP7b-22" value="lecturer" style="shape=partialRectangle;overflow=hidden;connectable=0;fillColor=none;top=0;left=0;bottom=0;right=0;align=left;spacingLeft=6;" parent="C-vyLk0tnHw3VtMMgP7b-20" vertex="1">
          <mxGeometry x="30" width="220" height="30" as="geometry" />
        </mxCell>
        <mxCell id="C-vyLk0tnHw3VtMMgP7b-23" value="Student" style="shape=table;startSize=30;container=1;collapsible=1;childLayout=tableLayout;fixedRows=1;rowLines=0;fontStyle=1;align=center;resizeLast=1;" parent="1" vertex="1">
          <mxGeometry x="-230" y="360" width="250" height="220" as="geometry" />
        </mxCell>
        <mxCell id="C-vyLk0tnHw3VtMMgP7b-24" value="" style="shape=partialRectangle;collapsible=0;dropTarget=0;pointerEvents=0;fillColor=none;points=[[0,0.5],[1,0.5]];portConstraint=eastwest;top=0;left=0;right=0;bottom=1;" parent="C-vyLk0tnHw3VtMMgP7b-23" vertex="1">
          <mxGeometry y="30" width="250" height="30" as="geometry" />
        </mxCell>
        <mxCell id="C-vyLk0tnHw3VtMMgP7b-25" value="PK" style="shape=partialRectangle;overflow=hidden;connectable=0;fillColor=none;top=0;left=0;bottom=0;right=0;fontStyle=1;" parent="C-vyLk0tnHw3VtMMgP7b-24" vertex="1">
          <mxGeometry width="30" height="30" as="geometry" />
        </mxCell>
        <mxCell id="C-vyLk0tnHw3VtMMgP7b-26" value="student_id (auto generated index)" style="shape=partialRectangle;overflow=hidden;connectable=0;fillColor=none;top=0;left=0;bottom=0;right=0;align=left;spacingLeft=6;fontStyle=5;" parent="C-vyLk0tnHw3VtMMgP7b-24" vertex="1">
          <mxGeometry x="30" width="220" height="30" as="geometry" />
        </mxCell>
        <mxCell id="ffpQeVSOhYSVbCem01HP-11" value="" style="shape=partialRectangle;collapsible=0;dropTarget=0;pointerEvents=0;fillColor=none;points=[[0,0.5],[1,0.5]];portConstraint=eastwest;top=0;left=0;right=0;bottom=0;" parent="C-vyLk0tnHw3VtMMgP7b-23" vertex="1">
          <mxGeometry y="60" width="250" height="30" as="geometry" />
        </mxCell>
        <mxCell id="ffpQeVSOhYSVbCem01HP-12" value="" style="shape=partialRectangle;overflow=hidden;connectable=0;fillColor=none;top=0;left=0;bottom=0;right=0;" parent="ffpQeVSOhYSVbCem01HP-11" vertex="1">
          <mxGeometry width="30" height="30" as="geometry" />
        </mxCell>
        <mxCell id="ffpQeVSOhYSVbCem01HP-13" value="name" style="shape=partialRectangle;overflow=hidden;connectable=0;fillColor=none;top=0;left=0;bottom=0;right=0;align=left;spacingLeft=6;" parent="ffpQeVSOhYSVbCem01HP-11" vertex="1">
          <mxGeometry x="30" width="220" height="30" as="geometry" />
        </mxCell>
        <mxCell id="ffpQeVSOhYSVbCem01HP-67" value="" style="shape=partialRectangle;collapsible=0;dropTarget=0;pointerEvents=0;fillColor=none;points=[[0,0.5],[1,0.5]];portConstraint=eastwest;top=0;left=0;right=0;bottom=0;" parent="C-vyLk0tnHw3VtMMgP7b-23" vertex="1">
          <mxGeometry y="90" width="250" height="30" as="geometry" />
        </mxCell>
        <mxCell id="ffpQeVSOhYSVbCem01HP-68" value="" style="shape=partialRectangle;overflow=hidden;connectable=0;fillColor=none;top=0;left=0;bottom=0;right=0;" parent="ffpQeVSOhYSVbCem01HP-67" vertex="1">
          <mxGeometry width="30" height="30" as="geometry" />
        </mxCell>
        <mxCell id="ffpQeVSOhYSVbCem01HP-69" value="email" style="shape=partialRectangle;overflow=hidden;connectable=0;fillColor=none;top=0;left=0;bottom=0;right=0;align=left;spacingLeft=6;" parent="ffpQeVSOhYSVbCem01HP-67" vertex="1">
          <mxGeometry x="30" width="220" height="30" as="geometry" />
        </mxCell>
        <mxCell id="ffpQeVSOhYSVbCem01HP-14" value="" style="shape=partialRectangle;collapsible=0;dropTarget=0;pointerEvents=0;fillColor=none;points=[[0,0.5],[1,0.5]];portConstraint=eastwest;top=0;left=0;right=0;bottom=0;" parent="C-vyLk0tnHw3VtMMgP7b-23" vertex="1">
          <mxGeometry y="120" width="250" height="30" as="geometry" />
        </mxCell>
        <mxCell id="ffpQeVSOhYSVbCem01HP-15" value="" style="shape=partialRectangle;overflow=hidden;connectable=0;fillColor=none;top=0;left=0;bottom=0;right=0;" parent="ffpQeVSOhYSVbCem01HP-14" vertex="1">
          <mxGeometry width="30" height="30" as="geometry" />
        </mxCell>
        <mxCell id="ffpQeVSOhYSVbCem01HP-16" value="password" style="shape=partialRectangle;overflow=hidden;connectable=0;fillColor=none;top=0;left=0;bottom=0;right=0;align=left;spacingLeft=6;" parent="ffpQeVSOhYSVbCem01HP-14" vertex="1">
          <mxGeometry x="30" width="220" height="30" as="geometry" />
        </mxCell>
        <mxCell id="ffpQeVSOhYSVbCem01HP-17" value="" style="shape=partialRectangle;collapsible=0;dropTarget=0;pointerEvents=0;fillColor=none;points=[[0,0.5],[1,0.5]];portConstraint=eastwest;top=0;left=0;right=0;bottom=0;" parent="C-vyLk0tnHw3VtMMgP7b-23" vertex="1">
          <mxGeometry y="150" width="250" height="30" as="geometry" />
        </mxCell>
        <mxCell id="ffpQeVSOhYSVbCem01HP-18" value="" style="shape=partialRectangle;overflow=hidden;connectable=0;fillColor=none;top=0;left=0;bottom=0;right=0;" parent="ffpQeVSOhYSVbCem01HP-17" vertex="1">
          <mxGeometry width="30" height="30" as="geometry" />
        </mxCell>
        <mxCell id="ffpQeVSOhYSVbCem01HP-19" value="study_program" style="shape=partialRectangle;overflow=hidden;connectable=0;fillColor=none;top=0;left=0;bottom=0;right=0;align=left;spacingLeft=6;" parent="ffpQeVSOhYSVbCem01HP-17" vertex="1">
          <mxGeometry x="30" width="220" height="30" as="geometry" />
        </mxCell>
        <mxCell id="C-vyLk0tnHw3VtMMgP7b-27" value="" style="shape=partialRectangle;collapsible=0;dropTarget=0;pointerEvents=0;fillColor=none;points=[[0,0.5],[1,0.5]];portConstraint=eastwest;top=0;left=0;right=0;bottom=0;" parent="C-vyLk0tnHw3VtMMgP7b-23" vertex="1">
          <mxGeometry y="180" width="250" height="30" as="geometry" />
        </mxCell>
        <mxCell id="C-vyLk0tnHw3VtMMgP7b-28" value="" style="shape=partialRectangle;overflow=hidden;connectable=0;fillColor=none;top=0;left=0;bottom=0;right=0;" parent="C-vyLk0tnHw3VtMMgP7b-27" vertex="1">
          <mxGeometry width="30" height="30" as="geometry" />
        </mxCell>
        <mxCell id="C-vyLk0tnHw3VtMMgP7b-29" value="start_year" style="shape=partialRectangle;overflow=hidden;connectable=0;fillColor=none;top=0;left=0;bottom=0;right=0;align=left;spacingLeft=6;" parent="C-vyLk0tnHw3VtMMgP7b-27" vertex="1">
          <mxGeometry x="30" width="220" height="30" as="geometry" />
        </mxCell>
        <mxCell id="ffpQeVSOhYSVbCem01HP-1" value="Message" style="shape=table;startSize=30;container=1;collapsible=1;childLayout=tableLayout;fixedRows=1;rowLines=0;fontStyle=1;align=center;resizeLast=1;" parent="1" vertex="1">
          <mxGeometry x="120" y="360" width="250" height="190" as="geometry" />
        </mxCell>
        <mxCell id="ffpQeVSOhYSVbCem01HP-2" value="" style="shape=partialRectangle;collapsible=0;dropTarget=0;pointerEvents=0;fillColor=none;points=[[0,0.5],[1,0.5]];portConstraint=eastwest;top=0;left=0;right=0;bottom=1;" parent="ffpQeVSOhYSVbCem01HP-1" vertex="1">
          <mxGeometry y="30" width="250" height="30" as="geometry" />
        </mxCell>
        <mxCell id="ffpQeVSOhYSVbCem01HP-3" value="PK" style="shape=partialRectangle;overflow=hidden;connectable=0;fillColor=none;top=0;left=0;bottom=0;right=0;fontStyle=1;" parent="ffpQeVSOhYSVbCem01HP-2" vertex="1">
          <mxGeometry width="30" height="30" as="geometry" />
        </mxCell>
        <mxCell id="ffpQeVSOhYSVbCem01HP-4" value="message_id (auto generated index)" style="shape=partialRectangle;overflow=hidden;connectable=0;fillColor=none;top=0;left=0;bottom=0;right=0;align=left;spacingLeft=6;fontStyle=5;" parent="ffpQeVSOhYSVbCem01HP-2" vertex="1">
          <mxGeometry x="30" width="220" height="30" as="geometry" />
        </mxCell>
        <mxCell id="ffpQeVSOhYSVbCem01HP-5" value="" style="shape=partialRectangle;collapsible=0;dropTarget=0;pointerEvents=0;fillColor=none;points=[[0,0.5],[1,0.5]];portConstraint=eastwest;top=0;left=0;right=0;bottom=0;" parent="ffpQeVSOhYSVbCem01HP-1" vertex="1">
          <mxGeometry y="60" width="250" height="30" as="geometry" />
        </mxCell>
        <mxCell id="ffpQeVSOhYSVbCem01HP-6" value="" style="shape=partialRectangle;overflow=hidden;connectable=0;fillColor=none;top=0;left=0;bottom=0;right=0;" parent="ffpQeVSOhYSVbCem01HP-5" vertex="1">
          <mxGeometry width="30" height="30" as="geometry" />
        </mxCell>
        <mxCell id="ffpQeVSOhYSVbCem01HP-7" value="content" style="shape=partialRectangle;overflow=hidden;connectable=0;fillColor=none;top=0;left=0;bottom=0;right=0;align=left;spacingLeft=6;" parent="ffpQeVSOhYSVbCem01HP-5" vertex="1">
          <mxGeometry x="30" width="220" height="30" as="geometry" />
        </mxCell>
        <mxCell id="ffpQeVSOhYSVbCem01HP-20" value="" style="shape=partialRectangle;collapsible=0;dropTarget=0;pointerEvents=0;fillColor=none;points=[[0,0.5],[1,0.5]];portConstraint=eastwest;top=0;left=0;right=0;bottom=0;" parent="ffpQeVSOhYSVbCem01HP-1" vertex="1">
          <mxGeometry y="90" width="250" height="30" as="geometry" />
        </mxCell>
        <mxCell id="ffpQeVSOhYSVbCem01HP-21" value="FK1" style="shape=partialRectangle;overflow=hidden;connectable=0;fillColor=none;top=0;left=0;bottom=0;right=0;" parent="ffpQeVSOhYSVbCem01HP-20" vertex="1">
          <mxGeometry width="30" height="30" as="geometry" />
        </mxCell>
        <mxCell id="ffpQeVSOhYSVbCem01HP-22" value="subject" style="shape=partialRectangle;overflow=hidden;connectable=0;fillColor=none;top=0;left=0;bottom=0;right=0;align=left;spacingLeft=6;" parent="ffpQeVSOhYSVbCem01HP-20" vertex="1">
          <mxGeometry x="30" width="220" height="30" as="geometry" />
        </mxCell>
        <mxCell id="ffpQeVSOhYSVbCem01HP-23" value="" style="shape=partialRectangle;collapsible=0;dropTarget=0;pointerEvents=0;fillColor=none;points=[[0,0.5],[1,0.5]];portConstraint=eastwest;top=0;left=0;right=0;bottom=0;" parent="ffpQeVSOhYSVbCem01HP-1" vertex="1">
          <mxGeometry y="120" width="250" height="30" as="geometry" />
        </mxCell>
        <mxCell id="ffpQeVSOhYSVbCem01HP-24" value="FK2" style="shape=partialRectangle;overflow=hidden;connectable=0;fillColor=none;top=0;left=0;bottom=0;right=0;" parent="ffpQeVSOhYSVbCem01HP-23" vertex="1">
          <mxGeometry width="30" height="30" as="geometry" />
        </mxCell>
        <mxCell id="ffpQeVSOhYSVbCem01HP-25" value="student" style="shape=partialRectangle;overflow=hidden;connectable=0;fillColor=none;top=0;left=0;bottom=0;right=0;align=left;spacingLeft=6;" parent="ffpQeVSOhYSVbCem01HP-23" vertex="1">
          <mxGeometry x="30" width="220" height="30" as="geometry" />
        </mxCell>
        <mxCell id="ffpQeVSOhYSVbCem01HP-8" value="" style="shape=partialRectangle;collapsible=0;dropTarget=0;pointerEvents=0;fillColor=none;points=[[0,0.5],[1,0.5]];portConstraint=eastwest;top=0;left=0;right=0;bottom=0;" parent="ffpQeVSOhYSVbCem01HP-1" vertex="1">
          <mxGeometry y="150" width="250" height="30" as="geometry" />
        </mxCell>
        <mxCell id="ffpQeVSOhYSVbCem01HP-9" value="" style="shape=partialRectangle;overflow=hidden;connectable=0;fillColor=none;top=0;left=0;bottom=0;right=0;" parent="ffpQeVSOhYSVbCem01HP-8" vertex="1">
          <mxGeometry width="30" height="30" as="geometry" />
        </mxCell>
        <mxCell id="ffpQeVSOhYSVbCem01HP-10" value="time_stamp (auto generated)" style="shape=partialRectangle;overflow=hidden;connectable=0;fillColor=none;top=0;left=0;bottom=0;right=0;align=left;spacingLeft=6;" parent="ffpQeVSOhYSVbCem01HP-8" vertex="1">
          <mxGeometry x="30" width="220" height="30" as="geometry" />
        </mxCell>
        <mxCell id="ffpQeVSOhYSVbCem01HP-26" style="edgeStyle=orthogonalEdgeStyle;rounded=1;orthogonalLoop=1;jettySize=auto;html=1;exitX=0;exitY=0.5;exitDx=0;exitDy=0;entryX=1;entryY=0.5;entryDx=0;entryDy=0;startArrow=ERmandOne;startFill=0;endArrow=ERzeroToMany;endFill=1;" parent="1" source="C-vyLk0tnHw3VtMMgP7b-14" target="ffpQeVSOhYSVbCem01HP-20" edge="1">
          <mxGeometry relative="1" as="geometry">
            <Array as="points">
              <mxPoint x="420" y="405" />
              <mxPoint x="420" y="465" />
            </Array>
          </mxGeometry>
        </mxCell>
        <mxCell id="ffpQeVSOhYSVbCem01HP-27" style="edgeStyle=orthogonalEdgeStyle;rounded=1;orthogonalLoop=1;jettySize=auto;html=1;exitX=1;exitY=0.5;exitDx=0;exitDy=0;entryX=0;entryY=0.5;entryDx=0;entryDy=0;startArrow=ERmandOne;startFill=0;endArrow=ERzeroToMany;endFill=1;" parent="1" source="C-vyLk0tnHw3VtMMgP7b-24" target="ffpQeVSOhYSVbCem01HP-23" edge="1">
          <mxGeometry relative="1" as="geometry">
            <Array as="points">
              <mxPoint x="60" y="405" />
              <mxPoint x="60" y="495" />
            </Array>
          </mxGeometry>
        </mxCell>
        <mxCell id="ffpQeVSOhYSVbCem01HP-31" value="Comment" style="shape=table;startSize=30;container=1;collapsible=1;childLayout=tableLayout;fixedRows=1;rowLines=0;fontStyle=1;align=center;resizeLast=1;" parent="1" vertex="1">
          <mxGeometry x="-230" y="130" width="250" height="160" as="geometry" />
        </mxCell>
        <mxCell id="ffpQeVSOhYSVbCem01HP-32" value="" style="shape=partialRectangle;collapsible=0;dropTarget=0;pointerEvents=0;fillColor=none;points=[[0,0.5],[1,0.5]];portConstraint=eastwest;top=0;left=0;right=0;bottom=1;" parent="ffpQeVSOhYSVbCem01HP-31" vertex="1">
          <mxGeometry y="30" width="250" height="30" as="geometry" />
        </mxCell>
        <mxCell id="ffpQeVSOhYSVbCem01HP-33" value="PK" style="shape=partialRectangle;overflow=hidden;connectable=0;fillColor=none;top=0;left=0;bottom=0;right=0;fontStyle=1;" parent="ffpQeVSOhYSVbCem01HP-32" vertex="1">
          <mxGeometry width="30" height="30" as="geometry" />
        </mxCell>
        <mxCell id="ffpQeVSOhYSVbCem01HP-34" value="comment_id (auto generated index)" style="shape=partialRectangle;overflow=hidden;connectable=0;fillColor=none;top=0;left=0;bottom=0;right=0;align=left;spacingLeft=6;fontStyle=5;" parent="ffpQeVSOhYSVbCem01HP-32" vertex="1">
          <mxGeometry x="30" width="220" height="30" as="geometry" />
        </mxCell>
        <mxCell id="ffpQeVSOhYSVbCem01HP-35" value="" style="shape=partialRectangle;collapsible=0;dropTarget=0;pointerEvents=0;fillColor=none;points=[[0,0.5],[1,0.5]];portConstraint=eastwest;top=0;left=0;right=0;bottom=0;" parent="ffpQeVSOhYSVbCem01HP-31" vertex="1">
          <mxGeometry y="60" width="250" height="30" as="geometry" />
        </mxCell>
        <mxCell id="ffpQeVSOhYSVbCem01HP-36" value="" style="shape=partialRectangle;overflow=hidden;connectable=0;fillColor=none;top=0;left=0;bottom=0;right=0;" parent="ffpQeVSOhYSVbCem01HP-35" vertex="1">
          <mxGeometry width="30" height="30" as="geometry" />
        </mxCell>
        <mxCell id="ffpQeVSOhYSVbCem01HP-37" value="content" style="shape=partialRectangle;overflow=hidden;connectable=0;fillColor=none;top=0;left=0;bottom=0;right=0;align=left;spacingLeft=6;" parent="ffpQeVSOhYSVbCem01HP-35" vertex="1">
          <mxGeometry x="30" width="220" height="30" as="geometry" />
        </mxCell>
        <mxCell id="ffpQeVSOhYSVbCem01HP-38" value="" style="shape=partialRectangle;collapsible=0;dropTarget=0;pointerEvents=0;fillColor=none;points=[[0,0.5],[1,0.5]];portConstraint=eastwest;top=0;left=0;right=0;bottom=0;" parent="ffpQeVSOhYSVbCem01HP-31" vertex="1">
          <mxGeometry y="90" width="250" height="30" as="geometry" />
        </mxCell>
        <mxCell id="ffpQeVSOhYSVbCem01HP-39" value="FK" style="shape=partialRectangle;overflow=hidden;connectable=0;fillColor=none;top=0;left=0;bottom=0;right=0;" parent="ffpQeVSOhYSVbCem01HP-38" vertex="1">
          <mxGeometry width="30" height="30" as="geometry" />
        </mxCell>
        <mxCell id="ffpQeVSOhYSVbCem01HP-40" value="message" style="shape=partialRectangle;overflow=hidden;connectable=0;fillColor=none;top=0;left=0;bottom=0;right=0;align=left;spacingLeft=6;" parent="ffpQeVSOhYSVbCem01HP-38" vertex="1">
          <mxGeometry x="30" width="220" height="30" as="geometry" />
        </mxCell>
        <mxCell id="ffpQeVSOhYSVbCem01HP-44" value="" style="shape=partialRectangle;collapsible=0;dropTarget=0;pointerEvents=0;fillColor=none;points=[[0,0.5],[1,0.5]];portConstraint=eastwest;top=0;left=0;right=0;bottom=0;" parent="ffpQeVSOhYSVbCem01HP-31" vertex="1">
          <mxGeometry y="120" width="250" height="30" as="geometry" />
        </mxCell>
        <mxCell id="ffpQeVSOhYSVbCem01HP-45" value="" style="shape=partialRectangle;overflow=hidden;connectable=0;fillColor=none;top=0;left=0;bottom=0;right=0;" parent="ffpQeVSOhYSVbCem01HP-44" vertex="1">
          <mxGeometry width="30" height="30" as="geometry" />
        </mxCell>
        <mxCell id="ffpQeVSOhYSVbCem01HP-46" value="time_stamp (auto generated)" style="shape=partialRectangle;overflow=hidden;connectable=0;fillColor=none;top=0;left=0;bottom=0;right=0;align=left;spacingLeft=6;" parent="ffpQeVSOhYSVbCem01HP-44" vertex="1">
          <mxGeometry x="30" width="220" height="30" as="geometry" />
        </mxCell>
        <mxCell id="ffpQeVSOhYSVbCem01HP-47" value="Answer" style="shape=table;startSize=30;container=1;collapsible=1;childLayout=tableLayout;fixedRows=1;rowLines=0;fontStyle=1;align=center;resizeLast=1;" parent="1" vertex="1">
          <mxGeometry x="120" y="130" width="250" height="160" as="geometry" />
        </mxCell>
        <mxCell id="ffpQeVSOhYSVbCem01HP-48" value="" style="shape=partialRectangle;collapsible=0;dropTarget=0;pointerEvents=0;fillColor=none;points=[[0,0.5],[1,0.5]];portConstraint=eastwest;top=0;left=0;right=0;bottom=1;" parent="ffpQeVSOhYSVbCem01HP-47" vertex="1">
          <mxGeometry y="30" width="250" height="30" as="geometry" />
        </mxCell>
        <mxCell id="ffpQeVSOhYSVbCem01HP-49" value="PK" style="shape=partialRectangle;overflow=hidden;connectable=0;fillColor=none;top=0;left=0;bottom=0;right=0;fontStyle=1;" parent="ffpQeVSOhYSVbCem01HP-48" vertex="1">
          <mxGeometry width="30" height="30" as="geometry" />
        </mxCell>
        <mxCell id="ffpQeVSOhYSVbCem01HP-50" value="answer_id (auto generated index)" style="shape=partialRectangle;overflow=hidden;connectable=0;fillColor=none;top=0;left=0;bottom=0;right=0;align=left;spacingLeft=6;fontStyle=5;" parent="ffpQeVSOhYSVbCem01HP-48" vertex="1">
          <mxGeometry x="30" width="220" height="30" as="geometry" />
        </mxCell>
        <mxCell id="ffpQeVSOhYSVbCem01HP-51" value="" style="shape=partialRectangle;collapsible=0;dropTarget=0;pointerEvents=0;fillColor=none;points=[[0,0.5],[1,0.5]];portConstraint=eastwest;top=0;left=0;right=0;bottom=0;" parent="ffpQeVSOhYSVbCem01HP-47" vertex="1">
          <mxGeometry y="60" width="250" height="30" as="geometry" />
        </mxCell>
        <mxCell id="ffpQeVSOhYSVbCem01HP-52" value="" style="shape=partialRectangle;overflow=hidden;connectable=0;fillColor=none;top=0;left=0;bottom=0;right=0;" parent="ffpQeVSOhYSVbCem01HP-51" vertex="1">
          <mxGeometry width="30" height="30" as="geometry" />
        </mxCell>
        <mxCell id="ffpQeVSOhYSVbCem01HP-53" value="content" style="shape=partialRectangle;overflow=hidden;connectable=0;fillColor=none;top=0;left=0;bottom=0;right=0;align=left;spacingLeft=6;" parent="ffpQeVSOhYSVbCem01HP-51" vertex="1">
          <mxGeometry x="30" width="220" height="30" as="geometry" />
        </mxCell>
        <mxCell id="ffpQeVSOhYSVbCem01HP-54" value="" style="shape=partialRectangle;collapsible=0;dropTarget=0;pointerEvents=0;fillColor=none;points=[[0,0.5],[1,0.5]];portConstraint=eastwest;top=0;left=0;right=0;bottom=0;" parent="ffpQeVSOhYSVbCem01HP-47" vertex="1">
          <mxGeometry y="90" width="250" height="30" as="geometry" />
        </mxCell>
        <mxCell id="ffpQeVSOhYSVbCem01HP-55" value="FK" style="shape=partialRectangle;overflow=hidden;connectable=0;fillColor=none;top=0;left=0;bottom=0;right=0;" parent="ffpQeVSOhYSVbCem01HP-54" vertex="1">
          <mxGeometry width="30" height="30" as="geometry" />
        </mxCell>
        <mxCell id="ffpQeVSOhYSVbCem01HP-56" value="message" style="shape=partialRectangle;overflow=hidden;connectable=0;fillColor=none;top=0;left=0;bottom=0;right=0;align=left;spacingLeft=6;" parent="ffpQeVSOhYSVbCem01HP-54" vertex="1">
          <mxGeometry x="30" width="220" height="30" as="geometry" />
        </mxCell>
        <mxCell id="ffpQeVSOhYSVbCem01HP-57" value="" style="shape=partialRectangle;collapsible=0;dropTarget=0;pointerEvents=0;fillColor=none;points=[[0,0.5],[1,0.5]];portConstraint=eastwest;top=0;left=0;right=0;bottom=0;" parent="ffpQeVSOhYSVbCem01HP-47" vertex="1">
          <mxGeometry y="120" width="250" height="30" as="geometry" />
        </mxCell>
        <mxCell id="ffpQeVSOhYSVbCem01HP-58" value="" style="shape=partialRectangle;overflow=hidden;connectable=0;fillColor=none;top=0;left=0;bottom=0;right=0;" parent="ffpQeVSOhYSVbCem01HP-57" vertex="1">
          <mxGeometry width="30" height="30" as="geometry" />
        </mxCell>
        <mxCell id="ffpQeVSOhYSVbCem01HP-59" value="time_stamp (auto generated)" style="shape=partialRectangle;overflow=hidden;connectable=0;fillColor=none;top=0;left=0;bottom=0;right=0;align=left;spacingLeft=6;" parent="ffpQeVSOhYSVbCem01HP-57" vertex="1">
          <mxGeometry x="30" width="220" height="30" as="geometry" />
        </mxCell>
        <mxCell id="ffpQeVSOhYSVbCem01HP-64" style="edgeStyle=orthogonalEdgeStyle;rounded=1;orthogonalLoop=1;jettySize=auto;html=1;exitX=1;exitY=0.5;exitDx=0;exitDy=0;entryX=1;entryY=0.5;entryDx=0;entryDy=0;startArrow=ERzeroToOne;startFill=1;endArrow=ERzeroToOne;endFill=1;" parent="1" source="ffpQeVSOhYSVbCem01HP-2" target="ffpQeVSOhYSVbCem01HP-48" edge="1">
          <mxGeometry relative="1" as="geometry">
            <Array as="points">
              <mxPoint x="400" y="405" />
              <mxPoint x="400" y="175" />
            </Array>
          </mxGeometry>
        </mxCell>
        <mxCell id="ffpQeVSOhYSVbCem01HP-65" style="edgeStyle=orthogonalEdgeStyle;rounded=1;orthogonalLoop=1;jettySize=auto;html=1;exitX=0;exitY=0.5;exitDx=0;exitDy=0;entryX=1;entryY=0.5;entryDx=0;entryDy=0;startArrow=ERmandOne;startFill=0;endArrow=ERzeroToMany;endFill=1;" parent="1" source="ffpQeVSOhYSVbCem01HP-2" target="ffpQeVSOhYSVbCem01HP-38" edge="1">
          <mxGeometry relative="1" as="geometry">
            <Array as="points">
              <mxPoint x="80" y="405" />
              <mxPoint x="80" y="235" />
            </Array>
          </mxGeometry>
        </mxCell>
        <mxCell id="N2aM__Ja2LDdj5RGPOZt-1" value="&lt;font style=&quot;font-size: 17px&quot;&gt;&lt;b&gt;Student&lt;/b&gt;&lt;/font&gt;" style="text;html=1;strokeColor=none;fillColor=none;align=center;verticalAlign=middle;whiteSpace=wrap;rounded=0;" vertex="1" parent="1">
          <mxGeometry x="205" y="640" width="80" height="20" as="geometry" />
        </mxCell>
        <mxCell id="N2aM__Ja2LDdj5RGPOZt-12" style="edgeStyle=orthogonalEdgeStyle;rounded=1;orthogonalLoop=1;jettySize=auto;html=1;exitX=1;exitY=0.5;exitDx=0;exitDy=0;exitPerimeter=0;entryX=0.5;entryY=0;entryDx=0;entryDy=0;" edge="1" parent="1" source="N2aM__Ja2LDdj5RGPOZt-2" target="N2aM__Ja2LDdj5RGPOZt-10">
          <mxGeometry relative="1" as="geometry" />
        </mxCell>
        <mxCell id="N2aM__Ja2LDdj5RGPOZt-13" style="edgeStyle=orthogonalEdgeStyle;rounded=1;orthogonalLoop=1;jettySize=auto;html=1;exitX=0;exitY=0.5;exitDx=0;exitDy=0;exitPerimeter=0;entryX=0.5;entryY=0;entryDx=0;entryDy=0;" edge="1" parent="1" source="N2aM__Ja2LDdj5RGPOZt-2" target="N2aM__Ja2LDdj5RGPOZt-9">
          <mxGeometry relative="1" as="geometry" />
        </mxCell>
        <mxCell id="N2aM__Ja2LDdj5RGPOZt-2" value="Home" style="html=1;dashed=0;whitespace=wrap;shape=mxgraph.dfd.start;fillColor=#d5e8d4;strokeColor=#82b366;" vertex="1" parent="1">
          <mxGeometry x="205" y="680" width="80" height="30" as="geometry" />
        </mxCell>
        <mxCell id="N2aM__Ja2LDdj5RGPOZt-17" style="edgeStyle=orthogonalEdgeStyle;rounded=1;orthogonalLoop=1;jettySize=auto;html=1;exitX=0.5;exitY=1;exitDx=0;exitDy=0;entryX=0.5;entryY=0;entryDx=0;entryDy=0;" edge="1" parent="1" source="N2aM__Ja2LDdj5RGPOZt-9" target="N2aM__Ja2LDdj5RGPOZt-15">
          <mxGeometry relative="1" as="geometry" />
        </mxCell>
        <mxCell id="N2aM__Ja2LDdj5RGPOZt-9" value="Register" style="html=1;dashed=0;whitespace=wrap;fillColor=#ffe6cc;strokeColor=#d79b00;" vertex="1" parent="1">
          <mxGeometry x="105" y="729" width="100" height="50" as="geometry" />
        </mxCell>
        <mxCell id="N2aM__Ja2LDdj5RGPOZt-18" style="edgeStyle=orthogonalEdgeStyle;rounded=1;orthogonalLoop=1;jettySize=auto;html=1;exitX=0.5;exitY=1;exitDx=0;exitDy=0;entryX=0.5;entryY=0;entryDx=0;entryDy=0;" edge="1" parent="1" source="N2aM__Ja2LDdj5RGPOZt-10" target="N2aM__Ja2LDdj5RGPOZt-16">
          <mxGeometry relative="1" as="geometry" />
        </mxCell>
        <mxCell id="N2aM__Ja2LDdj5RGPOZt-10" value="Login" style="html=1;dashed=0;whitespace=wrap;fillColor=#ffe6cc;strokeColor=#d79b00;" vertex="1" parent="1">
          <mxGeometry x="280" y="729" width="100" height="50" as="geometry" />
        </mxCell>
        <mxCell id="N2aM__Ja2LDdj5RGPOZt-21" style="edgeStyle=orthogonalEdgeStyle;rounded=1;orthogonalLoop=1;jettySize=auto;html=1;exitX=0.5;exitY=1;exitDx=0;exitDy=0;entryX=0.5;entryY=0;entryDx=0;entryDy=0;" edge="1" parent="1" source="N2aM__Ja2LDdj5RGPOZt-15" target="N2aM__Ja2LDdj5RGPOZt-19">
          <mxGeometry relative="1" as="geometry" />
        </mxCell>
        <mxCell id="N2aM__Ja2LDdj5RGPOZt-23" style="edgeStyle=orthogonalEdgeStyle;rounded=1;orthogonalLoop=1;jettySize=auto;html=1;exitX=0;exitY=0.5;exitDx=0;exitDy=0;entryX=1;entryY=0.5;entryDx=0;entryDy=0;" edge="1" parent="1" source="N2aM__Ja2LDdj5RGPOZt-15" target="N2aM__Ja2LDdj5RGPOZt-22">
          <mxGeometry relative="1" as="geometry" />
        </mxCell>
        <mxCell id="N2aM__Ja2LDdj5RGPOZt-15" value="Create new user" style="shape=cylinder;whiteSpace=wrap;html=1;boundedLbl=1;backgroundOutline=1;fillColor=#fff2cc;strokeColor=#d6b656;" vertex="1" parent="1">
          <mxGeometry x="125" y="809" width="60" height="80" as="geometry" />
        </mxCell>
        <mxCell id="N2aM__Ja2LDdj5RGPOZt-20" style="edgeStyle=orthogonalEdgeStyle;rounded=1;orthogonalLoop=1;jettySize=auto;html=1;exitX=0.5;exitY=1;exitDx=0;exitDy=0;entryX=0.75;entryY=0;entryDx=0;entryDy=0;" edge="1" parent="1" source="N2aM__Ja2LDdj5RGPOZt-16" target="N2aM__Ja2LDdj5RGPOZt-19">
          <mxGeometry relative="1" as="geometry" />
        </mxCell>
        <mxCell id="N2aM__Ja2LDdj5RGPOZt-26" style="edgeStyle=orthogonalEdgeStyle;rounded=1;orthogonalLoop=1;jettySize=auto;html=1;exitX=1;exitY=0.5;exitDx=0;exitDy=0;entryX=0;entryY=0.5;entryDx=0;entryDy=0;" edge="1" parent="1" source="N2aM__Ja2LDdj5RGPOZt-16" target="N2aM__Ja2LDdj5RGPOZt-25">
          <mxGeometry relative="1" as="geometry" />
        </mxCell>
        <mxCell id="N2aM__Ja2LDdj5RGPOZt-16" value="Authenticate user" style="shape=cylinder;whiteSpace=wrap;html=1;boundedLbl=1;backgroundOutline=1;fillColor=#fff2cc;strokeColor=#d6b656;" vertex="1" parent="1">
          <mxGeometry x="290" y="809" width="80" height="80" as="geometry" />
        </mxCell>
        <mxCell id="N2aM__Ja2LDdj5RGPOZt-32" style="edgeStyle=orthogonalEdgeStyle;rounded=1;orthogonalLoop=1;jettySize=auto;html=1;exitX=1;exitY=0.5;exitDx=0;exitDy=0;entryX=0.5;entryY=0.5;entryDx=0;entryDy=-15;entryPerimeter=0;" edge="1" parent="1" source="N2aM__Ja2LDdj5RGPOZt-19" target="N2aM__Ja2LDdj5RGPOZt-31">
          <mxGeometry relative="1" as="geometry" />
        </mxCell>
        <mxCell id="N2aM__Ja2LDdj5RGPOZt-35" style="edgeStyle=orthogonalEdgeStyle;rounded=1;orthogonalLoop=1;jettySize=auto;html=1;exitX=0;exitY=0.5;exitDx=0;exitDy=0;" edge="1" parent="1" source="N2aM__Ja2LDdj5RGPOZt-19" target="N2aM__Ja2LDdj5RGPOZt-29">
          <mxGeometry relative="1" as="geometry" />
        </mxCell>
        <mxCell id="N2aM__Ja2LDdj5RGPOZt-36" style="edgeStyle=orthogonalEdgeStyle;rounded=1;orthogonalLoop=1;jettySize=auto;html=1;exitX=0.5;exitY=1;exitDx=0;exitDy=0;entryX=0.5;entryY=0;entryDx=0;entryDy=0;" edge="1" parent="1" source="N2aM__Ja2LDdj5RGPOZt-19" target="N2aM__Ja2LDdj5RGPOZt-28">
          <mxGeometry relative="1" as="geometry" />
        </mxCell>
        <mxCell id="N2aM__Ja2LDdj5RGPOZt-19" value="Success,&lt;br&gt;logged in as student" style="shape=parallelogram;perimeter=parallelogramPerimeter;whiteSpace=wrap;html=1;dashed=0;fillColor=#f5f5f5;strokeColor=#666666;fontColor=#333333;" vertex="1" parent="1">
          <mxGeometry x="190" y="929" width="100" height="50" as="geometry" />
        </mxCell>
        <mxCell id="N2aM__Ja2LDdj5RGPOZt-24" style="edgeStyle=orthogonalEdgeStyle;rounded=1;orthogonalLoop=1;jettySize=auto;html=1;exitX=0.75;exitY=0;exitDx=0;exitDy=0;entryX=0;entryY=0.5;entryDx=0;entryDy=0;" edge="1" parent="1" source="N2aM__Ja2LDdj5RGPOZt-22" target="N2aM__Ja2LDdj5RGPOZt-9">
          <mxGeometry relative="1" as="geometry" />
        </mxCell>
        <mxCell id="N2aM__Ja2LDdj5RGPOZt-22" value="Register failed" style="shape=parallelogram;perimeter=parallelogramPerimeter;whiteSpace=wrap;html=1;dashed=0;fillColor=#f5f5f5;strokeColor=#666666;fontColor=#333333;" vertex="1" parent="1">
          <mxGeometry x="-50" y="824" width="110" height="50" as="geometry" />
        </mxCell>
        <mxCell id="N2aM__Ja2LDdj5RGPOZt-27" style="edgeStyle=orthogonalEdgeStyle;rounded=1;orthogonalLoop=1;jettySize=auto;html=1;exitX=0.5;exitY=0;exitDx=0;exitDy=0;entryX=1;entryY=0.5;entryDx=0;entryDy=0;" edge="1" parent="1" source="N2aM__Ja2LDdj5RGPOZt-25" target="N2aM__Ja2LDdj5RGPOZt-10">
          <mxGeometry relative="1" as="geometry">
            <mxPoint x="390" y="769" as="targetPoint" />
          </mxGeometry>
        </mxCell>
        <mxCell id="N2aM__Ja2LDdj5RGPOZt-25" value="Login failed" style="shape=parallelogram;perimeter=parallelogramPerimeter;whiteSpace=wrap;html=1;dashed=0;fillColor=#f5f5f5;strokeColor=#666666;fontColor=#333333;" vertex="1" parent="1">
          <mxGeometry x="430" y="824" width="100" height="50" as="geometry" />
        </mxCell>
        <mxCell id="N2aM__Ja2LDdj5RGPOZt-38" style="edgeStyle=orthogonalEdgeStyle;rounded=1;orthogonalLoop=1;jettySize=auto;html=1;exitX=0.5;exitY=1;exitDx=0;exitDy=0;" edge="1" parent="1" source="N2aM__Ja2LDdj5RGPOZt-28" target="N2aM__Ja2LDdj5RGPOZt-37">
          <mxGeometry relative="1" as="geometry" />
        </mxCell>
        <mxCell id="N2aM__Ja2LDdj5RGPOZt-28" value="Choose subject" style="html=1;dashed=0;whitespace=wrap;fillColor=#ffe6cc;strokeColor=#d79b00;" vertex="1" parent="1">
          <mxGeometry x="190" y="1009" width="100" height="50" as="geometry" />
        </mxCell>
        <mxCell id="N2aM__Ja2LDdj5RGPOZt-34" style="edgeStyle=orthogonalEdgeStyle;rounded=1;orthogonalLoop=1;jettySize=auto;html=1;exitX=0.5;exitY=1;exitDx=0;exitDy=0;entryX=0.5;entryY=0;entryDx=0;entryDy=0;" edge="1" parent="1" source="N2aM__Ja2LDdj5RGPOZt-29" target="N2aM__Ja2LDdj5RGPOZt-33">
          <mxGeometry relative="1" as="geometry" />
        </mxCell>
        <mxCell id="N2aM__Ja2LDdj5RGPOZt-29" value="Change password" style="html=1;dashed=0;whitespace=wrap;fillColor=#ffe6cc;strokeColor=#d79b00;" vertex="1" parent="1">
          <mxGeometry x="30" y="1009" width="115" height="50" as="geometry" />
        </mxCell>
        <mxCell id="N2aM__Ja2LDdj5RGPOZt-31" value="Sign out" style="html=1;dashed=0;whitespace=wrap;shape=mxgraph.dfd.start;fillColor=#f8cecc;strokeColor=#b85450;" vertex="1" parent="1">
          <mxGeometry x="340" y="1019" width="80" height="30" as="geometry" />
        </mxCell>
        <mxCell id="N2aM__Ja2LDdj5RGPOZt-33" value="Update password for user" style="shape=cylinder;whiteSpace=wrap;html=1;boundedLbl=1;backgroundOutline=1;fillColor=#fff2cc;strokeColor=#d6b656;" vertex="1" parent="1">
          <mxGeometry x="56.25" y="1094" width="62.5" height="80" as="geometry" />
        </mxCell>
        <mxCell id="N2aM__Ja2LDdj5RGPOZt-40" style="edgeStyle=orthogonalEdgeStyle;rounded=1;orthogonalLoop=1;jettySize=auto;html=1;exitX=1;exitY=0.5;exitDx=0;exitDy=0;entryX=0;entryY=0.5;entryDx=0;entryDy=0;" edge="1" parent="1" source="N2aM__Ja2LDdj5RGPOZt-37" target="N2aM__Ja2LDdj5RGPOZt-39">
          <mxGeometry relative="1" as="geometry" />
        </mxCell>
        <mxCell id="N2aM__Ja2LDdj5RGPOZt-37" value="Subject info, messages and answers" style="shape=parallelogram;perimeter=parallelogramPerimeter;whiteSpace=wrap;html=1;dashed=0;fillColor=#f5f5f5;strokeColor=#666666;fontColor=#333333;" vertex="1" parent="1">
          <mxGeometry x="167.5" y="1094" width="145" height="50" as="geometry" />
        </mxCell>
        <mxCell id="N2aM__Ja2LDdj5RGPOZt-42" style="edgeStyle=orthogonalEdgeStyle;rounded=1;orthogonalLoop=1;jettySize=auto;html=1;exitX=1;exitY=0.5;exitDx=0;exitDy=0;entryX=0;entryY=0.5;entryDx=0;entryDy=0;" edge="1" parent="1" source="N2aM__Ja2LDdj5RGPOZt-39" target="N2aM__Ja2LDdj5RGPOZt-41">
          <mxGeometry relative="1" as="geometry" />
        </mxCell>
        <mxCell id="N2aM__Ja2LDdj5RGPOZt-39" value="Send message" style="html=1;dashed=0;whitespace=wrap;fillColor=#ffe6cc;strokeColor=#d79b00;" vertex="1" parent="1">
          <mxGeometry x="340" y="1094" width="100" height="50" as="geometry" />
        </mxCell>
        <mxCell id="N2aM__Ja2LDdj5RGPOZt-41" value="Create new message" style="shape=cylinder;whiteSpace=wrap;html=1;boundedLbl=1;backgroundOutline=1;fillColor=#fff2cc;strokeColor=#d6b656;" vertex="1" parent="1">
          <mxGeometry x="480" y="1079" width="70" height="80" as="geometry" />
        </mxCell>
        <mxCell id="N2aM__Ja2LDdj5RGPOZt-43" value="&lt;font style=&quot;font-size: 17px&quot;&gt;&lt;b&gt;Lecturer&lt;/b&gt;&lt;/font&gt;" style="text;html=1;strokeColor=none;fillColor=none;align=center;verticalAlign=middle;whiteSpace=wrap;rounded=0;" vertex="1" parent="1">
          <mxGeometry x="905" y="650" width="80" height="20" as="geometry" />
        </mxCell>
        <mxCell id="N2aM__Ja2LDdj5RGPOZt-44" style="edgeStyle=orthogonalEdgeStyle;rounded=1;orthogonalLoop=1;jettySize=auto;html=1;exitX=1;exitY=0.5;exitDx=0;exitDy=0;exitPerimeter=0;entryX=0.5;entryY=0;entryDx=0;entryDy=0;" edge="1" parent="1" source="N2aM__Ja2LDdj5RGPOZt-46" target="N2aM__Ja2LDdj5RGPOZt-50">
          <mxGeometry relative="1" as="geometry" />
        </mxCell>
        <mxCell id="N2aM__Ja2LDdj5RGPOZt-45" style="edgeStyle=orthogonalEdgeStyle;rounded=1;orthogonalLoop=1;jettySize=auto;html=1;exitX=0;exitY=0.5;exitDx=0;exitDy=0;exitPerimeter=0;entryX=0.5;entryY=0;entryDx=0;entryDy=0;" edge="1" parent="1" source="N2aM__Ja2LDdj5RGPOZt-46" target="N2aM__Ja2LDdj5RGPOZt-48">
          <mxGeometry relative="1" as="geometry" />
        </mxCell>
        <mxCell id="N2aM__Ja2LDdj5RGPOZt-46" value="Home" style="html=1;dashed=0;whitespace=wrap;shape=mxgraph.dfd.start;fillColor=#d5e8d4;strokeColor=#82b366;" vertex="1" parent="1">
          <mxGeometry x="905" y="690" width="80" height="30" as="geometry" />
        </mxCell>
        <mxCell id="N2aM__Ja2LDdj5RGPOZt-47" style="edgeStyle=orthogonalEdgeStyle;rounded=1;orthogonalLoop=1;jettySize=auto;html=1;exitX=0.5;exitY=1;exitDx=0;exitDy=0;entryX=0.5;entryY=0;entryDx=0;entryDy=0;" edge="1" parent="1" source="N2aM__Ja2LDdj5RGPOZt-48" target="N2aM__Ja2LDdj5RGPOZt-53">
          <mxGeometry relative="1" as="geometry" />
        </mxCell>
        <mxCell id="N2aM__Ja2LDdj5RGPOZt-48" value="Register" style="html=1;dashed=0;whitespace=wrap;fillColor=#ffe6cc;strokeColor=#d79b00;" vertex="1" parent="1">
          <mxGeometry x="805" y="739" width="100" height="50" as="geometry" />
        </mxCell>
        <mxCell id="N2aM__Ja2LDdj5RGPOZt-49" style="edgeStyle=orthogonalEdgeStyle;rounded=1;orthogonalLoop=1;jettySize=auto;html=1;exitX=0.5;exitY=1;exitDx=0;exitDy=0;entryX=0.5;entryY=0;entryDx=0;entryDy=0;" edge="1" parent="1" source="N2aM__Ja2LDdj5RGPOZt-50" target="N2aM__Ja2LDdj5RGPOZt-56">
          <mxGeometry relative="1" as="geometry" />
        </mxCell>
        <mxCell id="N2aM__Ja2LDdj5RGPOZt-50" value="Login" style="html=1;dashed=0;whitespace=wrap;fillColor=#ffe6cc;strokeColor=#d79b00;" vertex="1" parent="1">
          <mxGeometry x="980" y="739" width="100" height="50" as="geometry" />
        </mxCell>
        <mxCell id="N2aM__Ja2LDdj5RGPOZt-51" style="edgeStyle=orthogonalEdgeStyle;rounded=1;orthogonalLoop=1;jettySize=auto;html=1;exitX=0.5;exitY=1;exitDx=0;exitDy=0;entryX=0.5;entryY=0;entryDx=0;entryDy=0;" edge="1" parent="1" source="N2aM__Ja2LDdj5RGPOZt-53" target="N2aM__Ja2LDdj5RGPOZt-60">
          <mxGeometry relative="1" as="geometry" />
        </mxCell>
        <mxCell id="N2aM__Ja2LDdj5RGPOZt-52" style="edgeStyle=orthogonalEdgeStyle;rounded=1;orthogonalLoop=1;jettySize=auto;html=1;exitX=0;exitY=0.5;exitDx=0;exitDy=0;entryX=1;entryY=0.5;entryDx=0;entryDy=0;" edge="1" parent="1" source="N2aM__Ja2LDdj5RGPOZt-53" target="N2aM__Ja2LDdj5RGPOZt-62">
          <mxGeometry relative="1" as="geometry" />
        </mxCell>
        <mxCell id="N2aM__Ja2LDdj5RGPOZt-53" value="Create new user" style="shape=cylinder;whiteSpace=wrap;html=1;boundedLbl=1;backgroundOutline=1;fillColor=#fff2cc;strokeColor=#d6b656;" vertex="1" parent="1">
          <mxGeometry x="825" y="819" width="60" height="80" as="geometry" />
        </mxCell>
        <mxCell id="N2aM__Ja2LDdj5RGPOZt-54" style="edgeStyle=orthogonalEdgeStyle;rounded=1;orthogonalLoop=1;jettySize=auto;html=1;exitX=0.5;exitY=1;exitDx=0;exitDy=0;entryX=0.75;entryY=0;entryDx=0;entryDy=0;" edge="1" parent="1" source="N2aM__Ja2LDdj5RGPOZt-56" target="N2aM__Ja2LDdj5RGPOZt-60">
          <mxGeometry relative="1" as="geometry" />
        </mxCell>
        <mxCell id="N2aM__Ja2LDdj5RGPOZt-55" style="edgeStyle=orthogonalEdgeStyle;rounded=1;orthogonalLoop=1;jettySize=auto;html=1;exitX=1;exitY=0.5;exitDx=0;exitDy=0;entryX=0;entryY=0.5;entryDx=0;entryDy=0;" edge="1" parent="1" source="N2aM__Ja2LDdj5RGPOZt-56" target="N2aM__Ja2LDdj5RGPOZt-64">
          <mxGeometry relative="1" as="geometry" />
        </mxCell>
        <mxCell id="N2aM__Ja2LDdj5RGPOZt-56" value="Authenticate user" style="shape=cylinder;whiteSpace=wrap;html=1;boundedLbl=1;backgroundOutline=1;fillColor=#fff2cc;strokeColor=#d6b656;" vertex="1" parent="1">
          <mxGeometry x="990" y="819" width="80" height="80" as="geometry" />
        </mxCell>
        <mxCell id="N2aM__Ja2LDdj5RGPOZt-57" style="edgeStyle=orthogonalEdgeStyle;rounded=1;orthogonalLoop=1;jettySize=auto;html=1;exitX=1;exitY=0.5;exitDx=0;exitDy=0;entryX=0.5;entryY=0.5;entryDx=0;entryDy=-15;entryPerimeter=0;" edge="1" parent="1" source="N2aM__Ja2LDdj5RGPOZt-60" target="N2aM__Ja2LDdj5RGPOZt-69">
          <mxGeometry relative="1" as="geometry" />
        </mxCell>
        <mxCell id="N2aM__Ja2LDdj5RGPOZt-58" style="edgeStyle=orthogonalEdgeStyle;rounded=1;orthogonalLoop=1;jettySize=auto;html=1;exitX=0;exitY=0.5;exitDx=0;exitDy=0;" edge="1" parent="1" source="N2aM__Ja2LDdj5RGPOZt-60" target="N2aM__Ja2LDdj5RGPOZt-68">
          <mxGeometry relative="1" as="geometry" />
        </mxCell>
        <mxCell id="N2aM__Ja2LDdj5RGPOZt-76" style="edgeStyle=orthogonalEdgeStyle;rounded=1;orthogonalLoop=1;jettySize=auto;html=1;exitX=0.5;exitY=1;exitDx=0;exitDy=0;entryX=0.5;entryY=0;entryDx=0;entryDy=0;" edge="1" parent="1" source="N2aM__Ja2LDdj5RGPOZt-60" target="N2aM__Ja2LDdj5RGPOZt-72">
          <mxGeometry relative="1" as="geometry" />
        </mxCell>
        <mxCell id="N2aM__Ja2LDdj5RGPOZt-60" value="Success,&lt;br&gt;logged in as lecturer" style="shape=parallelogram;perimeter=parallelogramPerimeter;whiteSpace=wrap;html=1;dashed=0;fillColor=#f5f5f5;strokeColor=#666666;fontColor=#333333;" vertex="1" parent="1">
          <mxGeometry x="890" y="939" width="100" height="50" as="geometry" />
        </mxCell>
        <mxCell id="N2aM__Ja2LDdj5RGPOZt-61" style="edgeStyle=orthogonalEdgeStyle;rounded=1;orthogonalLoop=1;jettySize=auto;html=1;exitX=0.75;exitY=0;exitDx=0;exitDy=0;entryX=0;entryY=0.5;entryDx=0;entryDy=0;" edge="1" parent="1" source="N2aM__Ja2LDdj5RGPOZt-62" target="N2aM__Ja2LDdj5RGPOZt-48">
          <mxGeometry relative="1" as="geometry" />
        </mxCell>
        <mxCell id="N2aM__Ja2LDdj5RGPOZt-62" value="Register failed" style="shape=parallelogram;perimeter=parallelogramPerimeter;whiteSpace=wrap;html=1;dashed=0;fillColor=#f5f5f5;strokeColor=#666666;fontColor=#333333;" vertex="1" parent="1">
          <mxGeometry x="650" y="834" width="110" height="50" as="geometry" />
        </mxCell>
        <mxCell id="N2aM__Ja2LDdj5RGPOZt-63" style="edgeStyle=orthogonalEdgeStyle;rounded=1;orthogonalLoop=1;jettySize=auto;html=1;exitX=0.5;exitY=0;exitDx=0;exitDy=0;entryX=1;entryY=0.5;entryDx=0;entryDy=0;" edge="1" parent="1" source="N2aM__Ja2LDdj5RGPOZt-64" target="N2aM__Ja2LDdj5RGPOZt-50">
          <mxGeometry relative="1" as="geometry">
            <mxPoint x="1090" y="779" as="targetPoint" />
          </mxGeometry>
        </mxCell>
        <mxCell id="N2aM__Ja2LDdj5RGPOZt-64" value="Login failed" style="shape=parallelogram;perimeter=parallelogramPerimeter;whiteSpace=wrap;html=1;dashed=0;fillColor=#f5f5f5;strokeColor=#666666;fontColor=#333333;" vertex="1" parent="1">
          <mxGeometry x="1130" y="834" width="100" height="50" as="geometry" />
        </mxCell>
        <mxCell id="N2aM__Ja2LDdj5RGPOZt-67" style="edgeStyle=orthogonalEdgeStyle;rounded=1;orthogonalLoop=1;jettySize=auto;html=1;exitX=0.5;exitY=1;exitDx=0;exitDy=0;entryX=0.5;entryY=0;entryDx=0;entryDy=0;" edge="1" parent="1" source="N2aM__Ja2LDdj5RGPOZt-68" target="N2aM__Ja2LDdj5RGPOZt-70">
          <mxGeometry relative="1" as="geometry" />
        </mxCell>
        <mxCell id="N2aM__Ja2LDdj5RGPOZt-68" value="Change password" style="html=1;dashed=0;whitespace=wrap;fillColor=#ffe6cc;strokeColor=#d79b00;" vertex="1" parent="1">
          <mxGeometry x="730" y="1019" width="115" height="50" as="geometry" />
        </mxCell>
        <mxCell id="N2aM__Ja2LDdj5RGPOZt-69" value="Sign out" style="html=1;dashed=0;whitespace=wrap;shape=mxgraph.dfd.start;fillColor=#f8cecc;strokeColor=#b85450;" vertex="1" parent="1">
          <mxGeometry x="1040" y="1029" width="80" height="30" as="geometry" />
        </mxCell>
        <mxCell id="N2aM__Ja2LDdj5RGPOZt-70" value="Update password for user" style="shape=cylinder;whiteSpace=wrap;html=1;boundedLbl=1;backgroundOutline=1;fillColor=#fff2cc;strokeColor=#d6b656;" vertex="1" parent="1">
          <mxGeometry x="756.25" y="1104" width="62.5" height="80" as="geometry" />
        </mxCell>
        <mxCell id="N2aM__Ja2LDdj5RGPOZt-77" style="edgeStyle=orthogonalEdgeStyle;rounded=1;orthogonalLoop=1;jettySize=auto;html=1;exitX=0.5;exitY=1;exitDx=0;exitDy=0;entryX=0.5;entryY=0;entryDx=0;entryDy=0;" edge="1" parent="1" source="N2aM__Ja2LDdj5RGPOZt-72" target="N2aM__Ja2LDdj5RGPOZt-74">
          <mxGeometry relative="1" as="geometry" />
        </mxCell>
        <mxCell id="N2aM__Ja2LDdj5RGPOZt-72" value="Subject info, messages and answers" style="shape=parallelogram;perimeter=parallelogramPerimeter;whiteSpace=wrap;html=1;dashed=0;fillColor=#f5f5f5;strokeColor=#666666;fontColor=#333333;" vertex="1" parent="1">
          <mxGeometry x="867.5" y="1019" width="145" height="50" as="geometry" />
        </mxCell>
        <mxCell id="N2aM__Ja2LDdj5RGPOZt-73" style="edgeStyle=orthogonalEdgeStyle;rounded=1;orthogonalLoop=1;jettySize=auto;html=1;exitX=1;exitY=0.5;exitDx=0;exitDy=0;entryX=0;entryY=0.5;entryDx=0;entryDy=0;" edge="1" parent="1" source="N2aM__Ja2LDdj5RGPOZt-74" target="N2aM__Ja2LDdj5RGPOZt-75">
          <mxGeometry relative="1" as="geometry" />
        </mxCell>
        <mxCell id="N2aM__Ja2LDdj5RGPOZt-74" value="Answer message" style="html=1;dashed=0;whitespace=wrap;fillColor=#ffe6cc;strokeColor=#d79b00;" vertex="1" parent="1">
          <mxGeometry x="890" y="1109" width="100" height="50" as="geometry" />
        </mxCell>
        <mxCell id="N2aM__Ja2LDdj5RGPOZt-75" value="Create new answer" style="shape=cylinder;whiteSpace=wrap;html=1;boundedLbl=1;backgroundOutline=1;fillColor=#fff2cc;strokeColor=#d6b656;" vertex="1" parent="1">
          <mxGeometry x="1050" y="1094" width="70" height="80" as="geometry" />
        </mxCell>
        <mxCell id="N2aM__Ja2LDdj5RGPOZt-78" value="&lt;font style=&quot;font-size: 17px&quot;&gt;&lt;b&gt;Guest&lt;/b&gt;&lt;/font&gt;" style="text;html=1;strokeColor=none;fillColor=none;align=center;verticalAlign=middle;whiteSpace=wrap;rounded=0;" vertex="1" parent="1">
          <mxGeometry x="1557.5" y="600" width="80" height="20" as="geometry" />
        </mxCell>
        <mxCell id="N2aM__Ja2LDdj5RGPOZt-111" style="edgeStyle=orthogonalEdgeStyle;rounded=1;orthogonalLoop=1;jettySize=auto;html=1;exitX=0.5;exitY=0.5;exitDx=0;exitDy=15;exitPerimeter=0;entryX=0.5;entryY=0;entryDx=0;entryDy=0;" edge="1" parent="1" source="N2aM__Ja2LDdj5RGPOZt-81" target="N2aM__Ja2LDdj5RGPOZt-101">
          <mxGeometry relative="1" as="geometry" />
        </mxCell>
        <mxCell id="N2aM__Ja2LDdj5RGPOZt-81" value="Home" style="html=1;dashed=0;whitespace=wrap;shape=mxgraph.dfd.start;fillColor=#d5e8d4;strokeColor=#82b366;" vertex="1" parent="1">
          <mxGeometry x="1557.5" y="640" width="80" height="30" as="geometry" />
        </mxCell>
        <mxCell id="N2aM__Ja2LDdj5RGPOZt-120" style="edgeStyle=orthogonalEdgeStyle;rounded=1;orthogonalLoop=1;jettySize=auto;html=1;exitX=0.5;exitY=1;exitDx=0;exitDy=0;entryX=0.5;entryY=0;entryDx=0;entryDy=0;" edge="1" parent="1" source="N2aM__Ja2LDdj5RGPOZt-101" target="N2aM__Ja2LDdj5RGPOZt-116">
          <mxGeometry relative="1" as="geometry" />
        </mxCell>
        <mxCell id="N2aM__Ja2LDdj5RGPOZt-101" value="Choose subject" style="html=1;dashed=0;whitespace=wrap;fillColor=#ffe6cc;strokeColor=#d79b00;" vertex="1" parent="1">
          <mxGeometry x="1547.5" y="699" width="100" height="50" as="geometry" />
        </mxCell>
        <mxCell id="N2aM__Ja2LDdj5RGPOZt-113" style="edgeStyle=orthogonalEdgeStyle;rounded=1;orthogonalLoop=1;jettySize=auto;html=1;exitX=1;exitY=0.5;exitDx=0;exitDy=0;entryX=0;entryY=0.5;entryDx=0;entryDy=0;" edge="1" parent="1" source="N2aM__Ja2LDdj5RGPOZt-107" target="N2aM__Ja2LDdj5RGPOZt-109">
          <mxGeometry relative="1" as="geometry" />
        </mxCell>
        <mxCell id="N2aM__Ja2LDdj5RGPOZt-115" style="edgeStyle=orthogonalEdgeStyle;rounded=1;orthogonalLoop=1;jettySize=auto;html=1;exitX=0.5;exitY=1;exitDx=0;exitDy=0;entryX=0.5;entryY=0;entryDx=0;entryDy=0;" edge="1" parent="1" source="N2aM__Ja2LDdj5RGPOZt-107" target="N2aM__Ja2LDdj5RGPOZt-114">
          <mxGeometry relative="1" as="geometry" />
        </mxCell>
        <mxCell id="N2aM__Ja2LDdj5RGPOZt-107" value="Subject info, messages and answers" style="shape=parallelogram;perimeter=parallelogramPerimeter;whiteSpace=wrap;html=1;dashed=0;fillColor=#f5f5f5;strokeColor=#666666;fontColor=#333333;" vertex="1" parent="1">
          <mxGeometry x="1386.25" y="979" width="145" height="50" as="geometry" />
        </mxCell>
        <mxCell id="N2aM__Ja2LDdj5RGPOZt-108" style="edgeStyle=orthogonalEdgeStyle;rounded=1;orthogonalLoop=1;jettySize=auto;html=1;exitX=1;exitY=0.5;exitDx=0;exitDy=0;entryX=0;entryY=0.3;entryDx=0;entryDy=0;" edge="1" parent="1" source="N2aM__Ja2LDdj5RGPOZt-109" target="N2aM__Ja2LDdj5RGPOZt-110">
          <mxGeometry relative="1" as="geometry" />
        </mxCell>
        <mxCell id="N2aM__Ja2LDdj5RGPOZt-109" value="Comment message" style="html=1;dashed=0;whitespace=wrap;fillColor=#ffe6cc;strokeColor=#d79b00;" vertex="1" parent="1">
          <mxGeometry x="1562.5" y="979" width="115" height="50" as="geometry" />
        </mxCell>
        <mxCell id="N2aM__Ja2LDdj5RGPOZt-110" value="Create new comment" style="shape=cylinder;whiteSpace=wrap;html=1;boundedLbl=1;backgroundOutline=1;fillColor=#fff2cc;strokeColor=#d6b656;" vertex="1" parent="1">
          <mxGeometry x="1720" y="980" width="70" height="80" as="geometry" />
        </mxCell>
        <mxCell id="N2aM__Ja2LDdj5RGPOZt-114" value="Report message" style="html=1;dashed=0;whitespace=wrap;fillColor=#ffe6cc;strokeColor=#d79b00;" vertex="1" parent="1">
          <mxGeometry x="1401.25" y="1060" width="115" height="50" as="geometry" />
        </mxCell>
        <mxCell id="N2aM__Ja2LDdj5RGPOZt-121" style="edgeStyle=orthogonalEdgeStyle;rounded=1;orthogonalLoop=1;jettySize=auto;html=1;exitX=0.5;exitY=1;exitDx=0;exitDy=0;entryX=0.5;entryY=0;entryDx=0;entryDy=0;" edge="1" parent="1" source="N2aM__Ja2LDdj5RGPOZt-116" target="N2aM__Ja2LDdj5RGPOZt-119">
          <mxGeometry relative="1" as="geometry" />
        </mxCell>
        <mxCell id="N2aM__Ja2LDdj5RGPOZt-116" value="Enter PIN" style="html=1;dashed=0;whitespace=wrap;fillColor=#ffe6cc;strokeColor=#d79b00;" vertex="1" parent="1">
          <mxGeometry x="1540" y="784" width="115" height="50" as="geometry" />
        </mxCell>
        <mxCell id="N2aM__Ja2LDdj5RGPOZt-126" style="edgeStyle=orthogonalEdgeStyle;rounded=1;orthogonalLoop=1;jettySize=auto;html=1;exitX=0.5;exitY=1;exitDx=0;exitDy=0;entryX=0.5;entryY=0;entryDx=0;entryDy=0;" edge="1" parent="1" source="N2aM__Ja2LDdj5RGPOZt-117" target="N2aM__Ja2LDdj5RGPOZt-107">
          <mxGeometry relative="1" as="geometry" />
        </mxCell>
        <mxCell id="N2aM__Ja2LDdj5RGPOZt-117" value="PIN approved" style="shape=parallelogram;perimeter=parallelogramPerimeter;whiteSpace=wrap;html=1;dashed=0;fillColor=#f5f5f5;strokeColor=#666666;fontColor=#333333;" vertex="1" parent="1">
          <mxGeometry x="1400" y="895" width="117.5" height="50" as="geometry" />
        </mxCell>
        <mxCell id="N2aM__Ja2LDdj5RGPOZt-124" style="edgeStyle=orthogonalEdgeStyle;rounded=1;orthogonalLoop=1;jettySize=auto;html=1;exitX=0.5;exitY=0;exitDx=0;exitDy=0;entryX=1;entryY=0.5;entryDx=0;entryDy=0;" edge="1" parent="1" source="N2aM__Ja2LDdj5RGPOZt-118" target="N2aM__Ja2LDdj5RGPOZt-116">
          <mxGeometry relative="1" as="geometry" />
        </mxCell>
        <mxCell id="N2aM__Ja2LDdj5RGPOZt-118" value="Wrong PIN" style="shape=parallelogram;perimeter=parallelogramPerimeter;whiteSpace=wrap;html=1;dashed=0;fillColor=#f5f5f5;strokeColor=#666666;fontColor=#333333;" vertex="1" parent="1">
          <mxGeometry x="1667.5" y="894" width="117.5" height="50" as="geometry" />
        </mxCell>
        <mxCell id="N2aM__Ja2LDdj5RGPOZt-122" style="edgeStyle=orthogonalEdgeStyle;rounded=1;orthogonalLoop=1;jettySize=auto;html=1;exitX=1;exitY=0.5;exitDx=0;exitDy=0;entryX=0;entryY=0.25;entryDx=0;entryDy=0;" edge="1" parent="1" source="N2aM__Ja2LDdj5RGPOZt-119" target="N2aM__Ja2LDdj5RGPOZt-118">
          <mxGeometry relative="1" as="geometry" />
        </mxCell>
        <mxCell id="N2aM__Ja2LDdj5RGPOZt-123" style="edgeStyle=orthogonalEdgeStyle;rounded=1;orthogonalLoop=1;jettySize=auto;html=1;exitX=0;exitY=0.5;exitDx=0;exitDy=0;entryX=1;entryY=0.25;entryDx=0;entryDy=0;" edge="1" parent="1" source="N2aM__Ja2LDdj5RGPOZt-119" target="N2aM__Ja2LDdj5RGPOZt-117">
          <mxGeometry relative="1" as="geometry" />
        </mxCell>
        <mxCell id="N2aM__Ja2LDdj5RGPOZt-119" value="Authenticate PIN" style="shape=cylinder;whiteSpace=wrap;html=1;boundedLbl=1;backgroundOutline=1;fillColor=#fff2cc;strokeColor=#d6b656;" vertex="1" parent="1">
          <mxGeometry x="1562.5" y="869" width="70" height="80" as="geometry" />
        </mxCell>
      </root>
    </mxGraphModel>
  </diagram>
</mxfile>
